<?xml version="1.0" encoding="utf-8"?>
<!-- Generator: Adobe Illustrator 23.1.1, SVG Export Plug-In . SVG Version: 6.00 Build 0)  -->
<svg version="1.1" id="Layer_1" xmlns="http://www.w3.org/2000/svg" xmlns:xlink="http://www.w3.org/1999/xlink" x="0px" y="0px"
	 viewBox="0 0 1024 1024" style="enable-background:new 0 0 1024 1024;" xml:space="preserve">
<style type="text/css">
	.st0{fill:#494949;}
</style>
<path class="st0" d="M622.8,512c0-57.3-49.6-103.7-110.8-103.7c-61.1,0-110.8,46.5-110.8,103.7S450.8,615.8,512,615.8
	C573.1,615.8,622.8,569.2,622.8,512 M768.6,512c0,138-114.8,249.7-256.6,249.7C370.4,761.8,255.4,650,255.4,512
	c0-138,114.8-249.7,256.6-249.7C653.7,262.4,768.6,374,768.6,512 M987.5,512c-65.6-194.5-253.6-335-475.5-335S102.1,317.5,36.5,512
	C102.1,706.5,290.1,847,512,847S921.9,706.5,987.5,512"/>
</svg>
