<?xml version="1.0" encoding="utf-8"?>
<!-- Generator: Adobe Illustrator 23.1.1, SVG Export Plug-In . SVG Version: 6.00 Build 0)  -->
<svg version="1.1" id="Layer_1" xmlns="http://www.w3.org/2000/svg" xmlns:xlink="http://www.w3.org/1999/xlink" x="0px" y="0px"
	 viewBox="0 0 1024 1024" style="enable-background:new 0 0 1024 1024;" xml:space="preserve">
<style type="text/css">
	.st0{fill:#353535;}
</style>
<g>
	<path class="st0" d="M927.3,154.9c-14.3-14.3-31.4-21.4-51.4-21.4H148.1c-20,0-37.1,7.1-51.4,21.4c-14.3,14.3-21.4,31.4-21.4,51.4
		v611.4c0,20,7.1,37.2,21.4,51.4c14.3,14.3,31.4,21.4,51.4,21.4h727.9c20,0,37.1-7.1,51.4-21.4c14.3-14.3,21.4-31.4,21.4-51.4V206.3
		C948.7,186.3,941.6,169.1,927.3,154.9z M250,803.2c0,7.9-2.9,14.7-8.6,20.5c-5.8,5.8-12.6,8.6-20.5,8.6h-58.2
		c-7.9,0-14.7-2.9-20.5-8.6c-5.8-5.8-8.6-12.6-8.6-20.5v-58.2c0-7.9,2.9-14.7,8.6-20.5c5.8-5.8,12.6-8.6,20.5-8.6h58.2
		c7.9,0,14.7,2.9,20.5,8.6c5.8,5.8,8.6,12.6,8.6,20.5V803.2z M250,628.5c0,7.9-2.9,14.7-8.6,20.5c-5.8,5.8-12.6,8.6-20.5,8.6h-58.2
		c-7.9,0-14.7-2.9-20.5-8.6c-5.8-5.8-8.6-12.6-8.6-20.5v-58.2c0-7.9,2.9-14.7,8.6-20.5c5.8-5.8,12.6-8.6,20.5-8.6h58.2
		c7.9,0,14.7,2.9,20.5,8.6c5.8,5.8,8.6,12.6,8.6,20.5V628.5z M250,453.8c0,7.9-2.9,14.7-8.6,20.5c-5.8,5.8-12.6,8.6-20.5,8.6h-58.2
		c-7.9,0-14.7-2.9-20.5-8.6c-5.8-5.8-8.6-12.6-8.6-20.5v-58.2c0-7.9,2.9-14.7,8.6-20.5c5.8-5.8,12.6-8.6,20.5-8.6h58.2
		c7.9,0,14.7,2.9,20.5,8.6c5.8,5.8,8.6,12.6,8.6,20.5V453.8z M250,279.1c0,7.9-2.9,14.7-8.6,20.5c-5.8,5.8-12.6,8.6-20.5,8.6h-58.2
		c-7.9,0-14.7-2.9-20.5-8.6c-5.8-5.8-8.6-12.6-8.6-20.5v-58.2c0-7.9,2.9-14.7,8.6-20.5c5.8-5.8,12.6-8.6,20.5-8.6h58.2
		c7.9,0,14.7,2.9,20.5,8.6c5.8,5.8,8.6,12.6,8.6,20.5V279.1z M715.8,803.2c0,7.9-2.9,14.7-8.6,20.5c-5.8,5.8-12.6,8.6-20.5,8.6
		H337.3c-7.9,0-14.7-2.9-20.5-8.6c-5.8-5.8-8.6-12.6-8.6-20.5V570.2c0-7.9,2.9-14.7,8.6-20.5c5.8-5.8,12.6-8.6,20.5-8.6h349.4
		c7.9,0,14.7,2.9,20.5,8.6c5.8,5.8,8.6,12.6,8.6,20.5L715.8,803.2L715.8,803.2z M715.8,453.8c0,7.9-2.9,14.7-8.6,20.5
		c-5.8,5.8-12.6,8.6-20.5,8.6H337.3c-7.9,0-14.7-2.9-20.5-8.6c-5.8-5.8-8.6-12.6-8.6-20.5V220.8c0-7.9,2.9-14.7,8.6-20.5
		c5.8-5.8,12.6-8.6,20.5-8.6h349.4c7.9,0,14.7,2.9,20.5,8.6c5.8,5.8,8.6,12.6,8.6,20.5L715.8,453.8L715.8,453.8z M890.5,803.2
		c0,7.9-2.9,14.7-8.6,20.5c-5.8,5.8-12.6,8.6-20.5,8.6h-58.2c-7.9,0-14.7-2.9-20.5-8.6c-5.8-5.8-8.6-12.6-8.6-20.5v-58.2
		c0-7.9,2.9-14.7,8.6-20.5c5.8-5.8,12.6-8.6,20.5-8.6h58.2c7.9,0,14.7,2.9,20.5,8.6c5.8,5.8,8.6,12.6,8.6,20.5L890.5,803.2
		L890.5,803.2z M890.5,628.5c0,7.9-2.9,14.7-8.6,20.5c-5.8,5.8-12.6,8.6-20.5,8.6h-58.2c-7.9,0-14.7-2.9-20.5-8.6
		c-5.8-5.8-8.6-12.6-8.6-20.5v-58.2c0-7.9,2.9-14.7,8.6-20.5c5.8-5.8,12.6-8.6,20.5-8.6h58.2c7.9,0,14.7,2.9,20.5,8.6
		c5.8,5.8,8.6,12.6,8.6,20.5L890.5,628.5L890.5,628.5z M890.5,453.8c0,7.9-2.9,14.7-8.6,20.5c-5.8,5.8-12.6,8.6-20.5,8.6h-58.2
		c-7.9,0-14.7-2.9-20.5-8.6c-5.8-5.8-8.6-12.6-8.6-20.5v-58.2c0-7.9,2.9-14.7,8.6-20.5c5.8-5.8,12.6-8.6,20.5-8.6h58.2
		c7.9,0,14.7,2.9,20.5,8.6c5.8,5.8,8.6,12.6,8.6,20.5L890.5,453.8L890.5,453.8z M890.5,279.1c0,7.9-2.9,14.7-8.6,20.5
		c-5.8,5.8-12.6,8.6-20.5,8.6h-58.2c-7.9,0-14.7-2.9-20.5-8.6c-5.8-5.8-8.6-12.6-8.6-20.5v-58.2c0-7.9,2.9-14.7,8.6-20.5
		c5.8-5.8,12.6-8.6,20.5-8.6h58.2c7.9,0,14.7,2.9,20.5,8.6c5.8,5.8,8.6,12.6,8.6,20.5L890.5,279.1L890.5,279.1z"/>
</g>
</svg>
